<?xml version="1.0" encoding="utf-8"?>
<!-- Generator: Adobe Illustrator 22.0.1, SVG Export Plug-In . SVG Version: 6.00 Build 0)  -->
<svg version="1.1" xmlns="http://www.w3.org/2000/svg" xmlns:xlink="http://www.w3.org/1999/xlink" x="0px" y="0px"
	 viewBox="0 0 705.6 669.6" style="enable-background:new 0 0 705.6 669.6;" xml:space="preserve">
<style type="text/css">
	.Arched_x0020_Green{fill:url(#SVGID_1_);stroke:#FFFFFF;stroke-width:0.25;stroke-miterlimit:1;}
	.st0{fill:#1A4870;}
	.st1{fill:#213D74;}
</style>
<linearGradient id="SVGID_1_" gradientUnits="userSpaceOnUse" x1="-922.2" y1="190.891" x2="-921.4929" y2="190.1839">
	<stop  offset="0" style="stop-color:#20AC4B"/>
	<stop  offset="0.9831" style="stop-color:#19361A"/>
</linearGradient>
<g id="Layer_1">
</g>
<g id="Layer_2">
	<g>
		<path class="st1" d="M358.9,9.5c21,0.4,39.3,1.6,55.4,11.4c9.1,5.5,18,11.7,26,18.8c23.3,20.8,40.9,46.4,57.4,72.6
			c17.8,28.2,34.6,56.9,51.9,85.4c13.5,22.3,26.8,44.7,40.3,67c13,21.6,26.1,43.1,39.3,64.6c16.7,27.2,33.7,54.2,50,81.7
			c7.1,12.1,13.1,24.9,18.9,37.7c4.9,11,1.1,23.4-7.9,29.3c-8.4,5.5-21.4,3.6-29.8-4c-7.1-6.5-11.4-14.8-16.1-22.9
			c-16.1-27.7-31.8-55.7-48.2-83.3c-9.4-15.9-19.8-31.2-29.6-46.8c-11.1-17.8-22.2-35.6-33.1-53.5c-18-29.6-35.9-59.4-53.7-89.1
			c-10.4-17.3-20.3-35-31.3-51.9c-6.7-10.3-14.6-19.8-22.4-29.4c-7.2-9-15.4-17-25.2-23.2c-9.2-5.8-19.2-8.2-30-9.4
			c-15.1-1.7-29.8,2.3-44.7,1.7c-10-0.4-17.7-4.4-21.9-13.6c-4.3-9.5-2.9-18.6,3.2-27.2c7.2-10.2,17.9-12.9,29.3-14.2
			C344.8,10.2,353.2,9.9,358.9,9.5z"/>
		<path class="st1" d="M142.7,249.1c0-69.2-0.1-138.5,0.1-207.7c0-6.6-0.1-13.5,3.2-19.7c3.6-6.8,9.1-10.6,16.5-11.3
			c5.3-0.4,10.8-0.6,15.9,0.3c10.2,1.8,17,10.8,17.1,21.2c0.3,63.1,0.6,126.2,0.7,189.3c0.1,77.9,0.1,155.7-0.1,233.6
			c0,6.4-0.1,13.2-2.1,19.2c-4.3,13-15.2,15.7-28.3,14.8c-6.2-0.4-12.5-1.7-16.3-7.1c-2.7-3.8-5.1-8.4-5.8-13
			c-1.1-6.7-1-13.7-1-20.5C142.7,381.9,142.7,315.5,142.7,249.1z"/>
		<path class="st1" d="M74.4,249.1c0-71.2,0-142.5,0-213.7c0-8.7,2.1-16.2,9.7-21.5c5.3-3.7,11.4-4.4,17.5-4.3
			c9.1,0.1,17.8,2.5,22.1,11.4c2.4,5,3.5,11,3.5,16.5c0.2,61.7,0.2,123.5,0.1,185.2c0,79.5,0,159-0.1,238.5c0,7.1-0.7,14.2-5.9,20
			c-6.7,7.4-15.3,8.2-24.4,7.7c-7.3-0.4-13.4-3.1-18-9.1c-3.5-4.5-4.5-9.7-4.5-15.1c0-56.2,0-112.5,0-168.7
			C74.5,280.4,74.5,264.7,74.4,249.1C74.5,249.1,74.4,249.1,74.4,249.1z"/>
		<path class="st1" d="M264.6,249.5c0,71.6,0,143.2,0,214.8c0,10.3-3.9,18.3-13.6,22.5c-9.2,4-26.1,3.4-33.7-5.9
			c-4.5-5.5-5.5-11.9-5.5-18.6c-0.1-43.7-0.1-87.5-0.1-131.2c0-98.2,0-196.5,0-294.7c0-9.5,2.3-18.2,11.3-23.3
			c5.8-3.4,12.4-4.1,18.8-3.2c4.4,0.6,9.1,2,12.9,4.2c7.3,4.3,9.7,11.6,9.7,19.8c0,47.4,0,94.7,0,142.1
			C264.6,200.5,264.6,225,264.6,249.5z"/>
		<path class="st1" d="M58.3,249.6c0,71.5,0,143,0,214.4c0,5.4-1,10.7-4.2,15.3c-6.4,8.9-15.6,10.5-25.6,9.6
			c-5.2-0.5-10.2-1.5-14.6-5.1c-6.7-5.6-8.4-13.1-8.4-21.1c-0.1-46.7-0.1-93.5-0.1-140.2c0-94.1,0-188.2,0-282.3
			c0-3.8,0.3-7.7,0.8-11.5C7.5,19.5,14,12.1,23,10.8c6.1-0.9,12.5-1.1,18.5,0c10.4,1.9,16.8,11.6,16.8,23.6c0,40.5,0,81,0,121.5
			C58.3,187.1,58.3,218.3,58.3,249.6z"/>
		<path class="st1" d="M349.7,92.8c21.9-0.1,36.9,6.5,49.9,17.9c16.3,14.4,29.1,31.7,41.7,49.3c15.3,21.3,28.3,44,40.6,67.2
			c8.9,16.8,19.8,32.6,29.7,48.9c3.7,6.2,7.1,12.6,10.7,18.9c13.2,22.9,26.3,45.8,39.5,68.7c8.4,14.6,16.8,29.2,25.3,43.7
			c5.3,9,11,17.8,16.1,27c2.5,4.4,4.4,9.2,5.8,14.1c2.1,7.6-1.7,15.2-8.7,18.7c-11.9,6-22.7,3.1-31.1-7.4
			c-12.9-16.5-22.9-34.7-33.2-52.8c-11.2-19.7-23.1-39.1-34.6-58.7c-13.6-23.3-26.9-46.7-40.5-69.9c-13.9-23.6-27.8-47.3-42.3-70.6
			c-7.1-11.5-15.1-22.6-23.3-33.4c-8.4-11.2-18.6-20.6-31.5-26.4c-6.8-3-13.9-4.1-21.5-3.3c-8.1,0.9-16.4,1.4-24.5,0.9
			c-7.5-0.5-11.9-5.7-14-12.8c-4.9-16.2,3.6-29.5,18.5-34.5C332.6,94.7,343.2,93,349.7,92.8z"/>
		<path class="st1" d="M303.8,203.8c-0.4-8.7,4.1-14.4,10.9-18.8c9.2-5.9,19.4-9.4,30.3-9.6c11.8-0.2,22.9,3.1,32.5,10.5
			c10.3,7.9,17.4,18.4,24.1,29.3c10.2,16.4,20.8,32.6,30.8,49.1c5.2,8.5,9.4,17.6,14.2,26.3c8.1,14.5,16.5,28.8,24.7,43.2
			c6.9,12.2,13.3,24.6,20.5,36.5c10,16.7,20.5,33,30.9,49.4c4.6,7.3,8.5,14.8,9.8,23.6c1.4,9.6-5,22-14.1,25.9
			c-9.8,4.2-20.5,1.5-26.8-7.7c-5.7-8.2-10.8-16.8-15.8-25.4c-9.1-15.5-17.9-31.1-26.8-46.7c-9.6-16.8-19.2-33.5-28.8-50.3
			c-14-24.6-26.6-50-42.8-73.3c-5.1-7.4-9.2-15.4-14.2-22.9c-6.6-10.2-15.5-14.5-28.3-13c-14.9,1.8-26.9-4.8-30.7-20
			C303.9,208,304,205.9,303.8,203.8z"/>
		<path class="st1" d="M458.9,449.7c-0.1,13.5-6.2,19.8-15,23.9c-9.4,4.4-17.5,1.6-24.8-4.8c-7.6-6.8-13.1-15.4-17.8-24.4
			c-14.8-28.2-31.1-55.5-47.9-82.5c-5.7-9.2-11.9-18.2-17.5-27.4c-11.4-18.8-0.2-33.1,15.4-38.7c8.1-2.9,16.5,0.8,22.6,10.1
			c9.8,14.9,19.2,30,28.6,45.2c10.6,17,21,34.2,31.6,51.3c6.8,11,14,21.8,20.3,33.2C457.2,440.6,458,446.8,458.9,449.7z"/>
		<path class="st1" d="M98.4,627c0-29.3,0-57.7,0-86.1c0-6,0.1-12,0-18c-0.1-3,0.9-4.4,4.1-4.2c3.2,0.2,6.5,0.2,9.7,0
			c3.4-0.2,3.9,1.6,3.9,4.4c-0.1,18.5,0,37,0,55.5c0,24.7,0,49.5,0,74.2c0,4.9-0.2,4.4-5,5.2c-10.3,1.6-16.3-2.5-21.9-11.4
			c-17.3-27.3-35.7-53.9-53.7-80.7c-3.3-5-6.8-9.8-10.7-15.5c-0.1,1.9-0.2,3-0.2,4.1c0,31.9,0,63.7,0,95.6c0,8.7,0.7,7.7-7.9,7.8
			c-2.1,0-4.3-0.1-6.4,0c-3.1,0.2-4.2-1.2-4.1-4.2c0.1-9,0-18,0-27c0-34.2,0-68.5,0-102.7c0-5.2,0-5.2,5.2-5.2c3.2,0,6.5,0.1,9.7,0
			c3.1-0.2,5.1,1.1,6.8,3.7c9.8,14.9,19.7,29.7,29.7,44.6c13,19.4,26.1,38.7,39.1,58C97.1,625.4,97.5,625.9,98.4,627z"/>
		<path class="st1" d="M248.1,660.1c-6.6-0.4-16.4-1.3-25.7-5c-15.6-6.3-24.4-17.9-27.9-34c-0.2-0.7-0.2-1.5-0.4-2.2
			c-1.1-5.6-0.6-6.1,5.2-6.3c3.1-0.1,6.2-0.7,9.3-0.6c1.2,0.1,3.1,1.6,3.2,2.7c2.6,16.6,13.5,24.5,28.9,27.6
			c9.9,2,19.6,1.5,29.1-1.9c6.2-2.2,11.2-5.9,14-12.2c3.9-8.8,1.8-18.2-6.8-23.2c-6-3.5-13-5.6-19.7-7.7c-11.5-3.6-23.5-6-34.8-10.1
			c-11.9-4.3-20.6-12.4-23.1-25.7c-2.6-13.8,4-29.4,16-36.5c12.2-7.3,25.5-9.2,39.6-7.9c7.6,0.7,14.7,2.4,21.6,5.5
			c12.6,5.8,19.4,16,22.3,29.2c1.2,5.5-0.1,7-5.8,7.2c-2.5,0.1-5,0.4-7.4,0.7c-2.4,0.3-4.3-0.2-4.7-3c-2.5-16.2-14.1-22.3-28.7-23
			c-6.6-0.3-13.5,0.6-19.9,2.1c-7.8,1.8-13.2,6.9-15.1,15c-1.6,6.7,1.5,14.8,8,17.2c8.9,3.4,18.2,5.8,27.4,8.6
			c10.3,3.2,21,5.6,30.8,10c14.5,6.5,22.2,21.2,20.1,36c-2.3,16.2-11.7,26.9-26.6,33C268.7,658.9,260.1,660.3,248.1,660.1z"/>
		<path class="st1" d="M330.2,588.4c0-21.4,0-42.7,0-64.1c0-5.5,0-5.5,5.7-5.5c3.1,0,6.3,0.1,9.4,0c3.1-0.2,4.1,1.1,4.1,4.2
			c-0.1,14.6,0,29.2,0,43.9c0,9,0,9,8.8,9c19.2,0,38.5,0,57.7,0c5,0,5.1,0,5.1-4.9c0-15.7,0.1-31.5-0.1-47.2c0-3.8,1.1-5.2,4.9-4.9
			c2.9,0.3,5.8,0.2,8.6,0c3.7-0.3,5,1,5,4.8c-0.2,16.4-0.1,32.7-0.1,49.1c0,26.6,0,53.2,0,79.9c0,5.3,0,5.3-5.5,5.4
			c-2.9,0-5.8-0.2-8.6,0c-3.3,0.2-4.4-1.1-4.3-4.3c0.1-18,0.1-36,0.1-54c0-7.6,0.6-6.9-6.8-7c-19.7,0-39.5,0-59.2,0
			c-5.6,0-5.6,0-5.6,5.5c0,18.2,0,36.5,0,54.7c0,5-0.1,5-5,5c-3.1,0-6.3-0.2-9.4,0c-3.6,0.3-4.8-1.1-4.8-4.7
			c0.1-18.6,0.1-37.2,0.1-55.9C330.2,594.4,330.2,591.4,330.2,588.4z"/>
		<path class="st1" d="M585.2,657.9c-6.8,0-12.8,0.2-18.7-0.2c-1.3-0.1-3-2.1-3.6-3.6c-4.6-11.5-9-23-13.3-34.6
			c-1.1-2.9-2.6-3.7-5.5-3.7c-16.5,0.1-33,0.1-49.5,0c-3.1,0-4.7,0.9-5.7,4c-4,11.7-8.3,23.3-12.6,34.8c-0.5,1.3-2,3-3.1,3.1
			c-5.6,0.3-11.2,0.1-17.4,0.1c0.5-1.8,0.8-3,1.2-4.2c6.9-18,13.8-36.1,20.8-54.1c9.9-25.7,19.9-51.4,29.6-77.2
			c1-2.7,2.5-3.6,5.3-3.5c4.1,0.2,8.3,0.2,12.4,0c3.1-0.2,4.5,1.3,5.5,3.9c7.8,19.3,15.6,38.6,23.4,57.9
			c9.9,24.3,19.8,48.5,29.7,72.8C584.3,654.5,584.6,655.8,585.2,657.9z M542.3,600.2c-8-21.7-15.9-43-23.4-63.1
			c-7.3,20.4-14.9,41.7-22.5,63.1C511.7,600.2,526.7,600.2,542.3,600.2z"/>
		<path class="st1" d="M634,596.7c0-18.7-0.1-37.5,0.1-56.2c0-3.8-1.1-4.9-4.9-4.9c-11.9,0.2-23.7,0.1-35.6,0.1
			c-5.3,0-5.3,0-5.3-5.5c0-2.2,0.2-4.5,0-6.7c-0.3-3.6,1.2-4.7,4.7-4.7c24.2,0.1,48.5,0.1,72.7,0.1c9.4,0,18.7,0.1,28.1,0
			c3.2,0,4.6,0.9,4.4,4.3c-0.2,2.9-0.2,5.8,0,8.6c0.2,3.2-1.2,4.1-4.2,4.1c-12.1-0.1-24.2,0-36.4,0c-5.2,0-5.2,0-5.2,5.2
			c0,37.1,0,74.2,0,111.3c0,5.8,0,5.8-5.8,5.8c-2.6,0-5.3-0.2-7.9,0c-3.6,0.3-4.8-1-4.8-4.7c0.1-17.4,0.1-34.7,0.1-52.1
			C634,599.7,634,598.2,634,596.7z"/>
		<path class="st1" d="M149.5,588.4c0-21.5,0-43,0-64.5c0-5.1,0-5.1,5.3-5.2c3,0,6,0.1,9,0c3.1-0.2,4.2,1.1,4.1,4.1
			c-0.1,10.4,0,20.7,0,31.1c0,32.9,0,65.7,0,98.6c0,5.3,0,5.3-5.5,5.4c-2.9,0-5.8-0.2-8.6,0c-3.3,0.2-4.4-1.1-4.3-4.4
			c0.1-16.6,0.1-33.2,0-49.8C149.5,598.6,149.5,593.5,149.5,588.4z"/>
	</g>
</g>
</svg>
