<svg width="705" height="221" viewBox="0 0 705 221" fill="none" xmlns="http://www.w3.org/2000/svg">
<path d="M166.594 216.667V0H211.094V216.667H166.594Z" fill="black"/>
<path d="M389.688 216.667V0H434.188V118.279H445.605C454.974 118.279 462.048 116.774 466.828 113.75C471.62 110.715 475.479 104.913 478.409 96.3326L489.242 62.9454H537.268L519.407 111.836C514.516 125.506 507.979 135.948 499.795 143.168L543.992 216.667H492.161L458.213 158.111H434.188V216.667H389.688Z" fill="black"/>
<path d="M0 216.667V11.6973H80.2461C96.8346 11.6973 111.182 14.7266 123.276 20.7795C135.382 26.8383 144.802 35.4302 151.527 46.5554C158.262 57.6864 161.636 70.7611 161.636 85.7795C161.636 100.617 158.262 113.598 151.527 124.723C144.802 135.855 135.382 144.446 123.276 150.499C111.182 156.558 96.8346 159.582 80.2461 159.582H46.5553V216.667H0ZM46.2751 119.447H76.4404C88.5345 119.447 97.8502 116.569 104.388 110.808C110.925 105.053 114.194 96.8113 114.194 86.083C114.194 75.3431 110.925 67.0488 104.388 61.1944C97.8502 55.3283 88.5345 52.3923 76.4404 52.3923H46.2751V119.447Z" fill="black"/>
<path d="M281.078 219.585C262.914 219.585 248.561 215.347 238.025 206.86C227.484 198.362 222.219 186.7 222.219 171.862C222.219 157.62 226.947 146.261 236.414 137.775C245.893 129.276 258.629 125.027 274.634 125.027H330.272V117.999C330.272 110.388 327.529 104.288 322.054 99.6944C316.59 95.1066 309.469 92.8068 300.69 92.8068C293.464 92.8068 287.318 94.4762 282.246 97.8033C277.168 101.119 273.946 105.508 272.58 110.971H229.83C232.568 94.1785 240.132 81.2906 252.524 72.3076C264.91 63.3304 280.868 58.8359 300.387 58.8359C323.419 58.8359 341.432 64.6495 354.413 76.2767C367.395 87.8922 373.885 103.844 373.885 124.139V216.666H340.802L335.829 198.805C322.363 212.662 304.111 219.585 281.078 219.585ZM266.136 170.111C266.136 175.388 268.43 179.637 273.023 182.859C277.611 186.069 283.717 187.669 291.328 187.669C302.453 187.669 311.675 184.458 318.995 178.026C326.309 171.582 330.161 163.188 330.552 152.834H288.386C281.755 152.834 276.385 154.398 272.276 157.527C268.179 160.644 266.136 164.835 266.136 170.111Z" fill="black"/>
<path d="M620.687 220.776C604.297 220.776 589.804 217.355 577.213 210.526C564.617 203.697 554.805 194.177 547.772 181.972C540.75 169.773 537.242 155.671 537.242 139.666C537.242 123.649 540.803 109.594 547.935 97.4997C555.062 85.3939 564.915 75.9206 577.494 69.0856C590.084 62.2564 604.676 58.8359 621.271 58.8359C638.84 58.8359 654.016 62.7467 666.799 70.5565C679.593 78.3721 689.352 89.3047 696.077 103.36C702.812 117.415 705.702 133.817 704.739 152.554H581.463C583.611 163.095 588.292 171.15 595.518 176.718C602.738 182.275 611.424 185.054 621.574 185.054C628.981 185.054 635.758 183.641 641.91 180.804C648.074 177.973 653.006 174.022 656.712 168.944H701.797C695.166 185.147 684.718 197.842 670.464 207.024C656.222 216.194 639.628 220.776 620.687 220.776ZM581.743 124.443H661.685C659.146 115.075 654.413 107.703 647.49 102.333C640.562 96.9627 631.923 94.2777 621.574 94.2777C611.815 94.2777 603.369 96.9627 596.242 102.333C589.109 107.703 584.276 115.075 581.743 124.443Z" fill="black"/>
</svg>
